<?xml version="1.0" encoding="iso-8859-1"?>
<!-- Generator: Adobe Illustrator 19.0.0, SVG Export Plug-In . SVG Version: 6.00 Build 0)  -->
<svg version="1.1" id="Layer_1" xmlns="http://www.w3.org/2000/svg" xmlns:xlink="http://www.w3.org/1999/xlink" x="0px" y="0px"
	 viewBox="0 0 503.611 503.611" style="enable-background:new 0 0 503.611 503.611;" xml:space="preserve">
<g>
	<g>
		<g>
			<circle cx="251.807" cy="360.92" r="8.393"/>
			<path d="M503.611,327.346c0-0.028-0.004-0.055-0.004-0.083V37.764c0-20.824-16.938-37.762-37.754-37.762H37.762
				C16.946,0.002,0,16.94,0,37.764v327.361c0,20.824,16.946,37.762,37.762,37.762h149.879c1.191,14.706-5.198,29.22-16.99,37.535
				l-15.1,10.651c-1.226,0.851-2.216,1.926-2.954,3.138c-10.547,3.003-18.297,12.72-18.297,24.216
				c0,13.883,11.298,25.18,25.18,25.18h184.656c13.883,0,25.18-11.298,25.18-25.18c0-11.495-7.749-21.211-18.294-24.215
				c-0.726-1.195-1.699-2.258-2.9-3.106l-15.133-10.668c-11.821-8.331-18.215-22.877-17.01-37.552h149.875
				c20.816,0,37.754-16.938,37.754-37.762V327.43C503.607,327.402,503.611,327.374,503.611,327.346z M37.762,16.789h428.091
				c11.566,0,20.967,9.409,20.967,20.975v281.189H16.787V37.764C16.787,26.198,26.196,16.789,37.762,16.789z M344.135,486.822
				H159.48c-4.625,0-8.393-3.769-8.393-8.393c0-4.625,3.769-8.393,8.393-8.393h1.896h180.862h1.898c4.625,0,8.393,3.769,8.393,8.393
				C352.529,483.053,348.76,486.822,344.135,486.822z M322.06,453.248H181.553c15.503-11.591,24.03-30.804,22.906-50.361h94.703
				C298.038,422.444,306.565,441.657,322.06,453.248z M465.853,386.1H319.584H184.172H37.762c-11.566,0-20.975-9.409-20.975-20.975
				V335.74H486.82v29.385C486.82,376.691,477.419,386.1,465.853,386.1z"/>
			<path d="M285.381,167.871c0-18.516-15.058-33.574-33.574-33.574s-33.574,15.058-33.574,33.574
				c0,18.516,15.058,33.574,33.574,33.574S285.381,186.387,285.381,167.871z M235.021,167.871c0-9.258,7.529-16.787,16.787-16.787
				s16.787,7.529,16.787,16.787c0,9.258-7.529,16.787-16.787,16.787S235.021,177.129,235.021,167.871z"/>
			<path d="M191.559,228.119c10.862,44.258,33.493,74.047,60.248,74.047c26.755,0,49.386-29.789,60.248-74.047
				c44.258-10.862,74.047-33.493,74.047-60.248s-29.789-49.386-74.047-60.248c-10.862-44.258-33.493-74.047-60.248-74.047
				c-26.755,0-49.386,29.789-60.248,74.047c-44.258,10.862-74.047,33.493-74.047,60.248S147.301,217.257,191.559,228.119z
				 M251.807,285.379c-15.464,0-32.072-20.346-41.823-53.564c13.113,2.08,27.156,3.203,41.823,3.203s28.709-1.123,41.823-3.203
				C283.879,265.033,267.272,285.379,251.807,285.379z M201.447,167.871c0-16.729,1.552-32.228,4.238-46.123
				c13.895-2.685,29.394-4.238,46.123-4.238s32.228,1.552,46.123,4.238c2.685,13.895,4.238,29.394,4.238,46.123
				c0,16.729-1.552,32.228-4.238,46.123c-13.895,2.685-29.394,4.238-46.123,4.238s-32.228-1.552-46.123-4.238
				C202.999,200.099,201.447,184.6,201.447,167.871z M369.316,167.871c0,15.464-20.346,32.072-53.564,41.823
				c2.08-13.113,3.203-27.156,3.203-41.823s-1.123-28.709-3.203-41.823C348.969,135.799,369.316,152.407,369.316,167.871z
				 M251.807,50.363c15.464,0,32.072,20.346,41.823,53.564c-13.113-2.08-27.156-3.203-41.823-3.203s-28.709,1.123-41.823,3.203
				C219.736,70.709,236.343,50.363,251.807,50.363z M187.863,126.048c-2.08,13.113-3.203,27.156-3.203,41.823
				s1.123,28.709,3.203,41.823c-33.218-9.751-53.564-26.358-53.564-41.823S154.645,135.799,187.863,126.048z"/>
		</g>
	</g>
</g>
<g>
</g>
<g>
</g>
<g>
</g>
<g>
</g>
<g>
</g>
<g>
</g>
<g>
</g>
<g>
</g>
<g>
</g>
<g>
</g>
<g>
</g>
<g>
</g>
<g>
</g>
<g>
</g>
<g>
</g>
</svg>
